inDegrees=no
num_controls=7
num_derivatives=13
num_iterations=36
num_multipliers=7
num_parameters=0
num_slacks=7
num_states=26
objective=0.426579
objective_accelerations=0.057588
objective_balance=0.001115
objective_effort=0.015373
objective_height=0.346495
objective_ligament=0.006009
solver_duration=567.646982
status=Solve_Succeeded
success=true
DataType=double
version=3
OpenSimVersion=4.5
endheader
time	/jointset/ground_pelvis/pelvis_tilt/value	/jointset/ground_pelvis/pelvis_tx/value	/jointset/ground_pelvis/pelvis_ty/value	/jointset/hip_l/hip_flexion_l/value	/jointset/hip_l/hip_adduction_l/value	/jointset/hip_l/hip_rotation_l/value	/jointset/back/lumbar_extension/value	/jointset/patellofemoral_l/patellar_flexion_l/value	/jointset/knee_l/knee_flexion_l/value	/jointset/knee_l/knee_adduction_l/value	/jointset/knee_l/knee_rotation_l/value	/jointset/ankle_l/ankle_angle_l/value	/jointset/subtalar_l/subtalar_angle_l/value	/jointset/ground_pelvis/pelvis_tilt/speed	/jointset/ground_pelvis/pelvis_tx/speed	/jointset/ground_pelvis/pelvis_ty/speed	/jointset/hip_l/hip_flexion_l/speed	/jointset/hip_l/hip_adduction_l/speed	/jointset/hip_l/hip_rotation_l/speed	/jointset/back/lumbar_extension/speed	/jointset/patellofemoral_l/patellar_flexion_l/speed	/jointset/knee_l/knee_flexion_l/speed	/jointset/knee_l/knee_adduction_l/speed	/jointset/knee_l/knee_rotation_l/speed	/jointset/ankle_l/ankle_angle_l/speed	/jointset/subtalar_l/subtalar_angle_l/speed	/forceset/tau_hip_flexion_l	/forceset/tau_hip_adduction_l	/forceset/tau_hip_rotation_l	/forceset/tau_knee_flexion_l	/forceset/tau_ankle_angle_l	/forceset/tau_subtalar_angle_l	/forceset/tau_lumbar_extension	lambda_cid13_p0	lambda_cid13_p1	lambda_cid13_p2	lambda_cid13_p3	lambda_cid13_p4	lambda_cid13_p5	lambda_cid14_p0	/jointset/ground_pelvis/pelvis_tilt/accel	/jointset/ground_pelvis/pelvis_tx/accel	/jointset/ground_pelvis/pelvis_ty/accel	/jointset/hip_l/hip_flexion_l/accel	/jointset/hip_l/hip_adduction_l/accel	/jointset/hip_l/hip_rotation_l/accel	/jointset/back/lumbar_extension/accel	/jointset/patellofemoral_l/patellar_flexion_l/accel	/jointset/knee_l/knee_flexion_l/accel	/jointset/knee_l/knee_adduction_l/accel	/jointset/knee_l/knee_rotation_l/accel	/jointset/ankle_l/ankle_angle_l/accel	/jointset/subtalar_l/subtalar_angle_l/accel	gamma_cid13_p0	gamma_cid13_p1	gamma_cid13_p2	gamma_cid13_p3	gamma_cid13_p4	gamma_cid13_p5	gamma_cid14_p0
0	0.04798562289986825	0.1081002227136549	0.9028661611049986	0.1266922784136757	-0.3700682740041776	-0.225289769606497	-0.2144969558742783	0.2051545070141985	0.2051545070141877	-0.1744184205036764	-0.1604606720657928	0.09024313228550125	0.07899961260858182	0	0	0	0	0	0	0	0	0	0	0	0	0	0.1184851674704088	-0.03413743810920763	-0.01059867714395997	-0.2509679149036178	0.1910846142229223	-0.1102075452736995	-0.05138568141018111	29.06665175755676	44.004087269812	-8.70177582799619	-17.34288028536047	-440.7661515234252	-28.53579596136949	-26.25699136122422	-3.645269165189073	-1.234965984001836	-0.8402218477375994	11.94107734598047	0.0958785004441618	3.169625883683036	-3.922054204266265	10.47181374244283	10.47181374244155	2.752834014914871	-0.8118024260106009	3.250571101644355	1.040491922387758	3.854698255065743e-08	7.295011865961607e-07	-3.876828726454552e-07	6.706047185158705e-08	1.588656003166705e-09	4.728629444055819e-07	1.354887286791958e-07
0.01	0.04781416445329165	0.1080417657128943	0.9028251820423971	0.1272684535948092	-0.3700650025907251	-0.2251223031657848	-0.2146940905802334	0.2056691811038346	0.2056691811038545	-0.1742865943773354	-0.160489873757899	0.09040718319274119	0.07905033472257011	-0.0338628242111895	-0.01138966608151784	-0.00819692311350787	0.1142854026061048	0.0003952847069134887	0.03349546541176394	-0.03885104388794405	0.1028786685602497	0.1028786685602511	0.02582073895307508	-0.005900330427997532	0.03316804314243262	0.009973224844477173	0.1153813149149302	-0.04241623639489937	-0.01031125961355367	-0.2506342094267935	0.1925007510046683	-0.1028919678658797	-0.04827835503881552	30.07761980030632	40.63645687946381	-8.149505057171524	-20.23331994107893	-440.128680294104	-35.22987016335164	-26.25666942545986	-3.192452123991782	-1.045693398420104	-0.8095938143626679	11.02983274912462	-0.02754870052237388	3.439913974882757	-3.780244884964111	10.18744390961066	10.1874439096116	2.415102993369789	-0.4882284501975115	3.403620983236213	0.9499891799305739	1.097562436283861e-08	9.393754942479584e-07	-1.889019745219911e-07	9.248085599448063e-08	-1.687026095888827e-07	3.577916068562981e-07	1.356962351879319e-07
0.02	0.04731694514960949	0.1078784667556786	0.9027022004944183	0.1289589950082156	-0.3700655587614672	-0.2246198006499554	-0.2152624588058537	0.2072109519784679	0.2072109519784645	-0.1739128790298726	-0.1605798947740213	0.09091365454394008	0.07919563936789392	-0.06515217141864782	-0.02096839129099881	-0.01640049707541846	0.2228732464601563	-0.0007655168396666069	0.06700721502191331	-0.07424670393206839	0.2054193569922803	0.2054193569922885	0.0483778442207912	-0.0121638648161314	0.06848408879260132	0.01891650626706991	0.1122774623592111	-0.05069503468056242	-0.01002384208355555	-0.2503005039500316	0.1939168877863958	-0.09557639045802876	-0.04517102866760993	31.13599277503133	37.2783617744366	-7.619130145965849	-23.17171725990114	-438.6207917601484	-41.72660591455545	-26.25582271183231	-3.130573764442486	-0.8727778095947772	-0.8415520174181316	10.80156559556986	-0.2153387502545822	3.172882723360116	-3.230977435502115	10.40421771679905	10.40421771679886	2.100107277843023	-0.8844432180379345	3.680171603191201	0.8345032380107269	-1.65957338249802e-08	1.149249801899756e-06	9.878923601473057e-09	1.179012401373742e-07	-3.389938751809321e-07	2.427202693070144e-07	1.35903741696668e-07
0.03	0.04651455759364525	0.1076247862755293	0.9024972357308616	0.1317142261003574	-0.3700814930466866	-0.2237859940982007	-0.2161712706478205	0.2097701424838509	0.2097701424838533	-0.1733236223085915	-0.1607339924828104	0.09177621119244235	0.07942730257790739	-0.09537944377554057	-0.02982969924916326	-0.02457906134315898	0.3279066033719488	-0.002275628102395505	0.09954086454899469	-0.1073474954412597	0.305687367031887	0.3056873670318824	0.06954669174465934	-0.01849636308669956	0.1035996039517496	0.02745289161141473	0.1093639548575182	-0.04586159321046775	-0.009133377614239968	-0.2458907780722872	0.1864933144082644	-0.09677091074920863	-0.04314931027295751	28.60361368874893	38.07611277088817	-7.558493196067751	-20.72728248017497	-439.2512843497846	-39.48377023438216	-26.25448097483836	-2.976914351017716	-0.9020827833585073	-0.8040679743142721	10.31426416787481	-0.09716653153764354	3.26165429010293	-3.324404655059943	9.728358908258734	9.728358908257015	2.136449664158425	-0.4837800923637733	3.363131982153302	0.8685366972214114	-1.512956173349535e-08	1.349625801760564e-06	-9.81586458488621e-08	1.502305427635018e-07	-4.764020656229706e-07	3.654618388444642e-07	1.783430643214303e-07
